<?xml version="1.0" encoding="UTF-8"?>
<svg xmlns="http://www.w3.org/2000/svg" width="566.4" height="1453" viewBox="0 0 566.4 1453" font-family="'IBM Plex Sans', system-ui, sans-serif">
<defs>
  <marker id="arrow" viewBox="0 0 8 8" refX="7" refY="4" markerWidth="6" markerHeight="6" orient="auto-start-reverse">
    <path d="M0 0 L8 4 L0 8 z" fill="#4c5765"/>
  </marker>
</defs>
<rect width="100%" height="100%" fill="#101317"/>
<rect x="0" y="0" width="100%" height="54" fill="#14181d"/>
<text x="24" y="24" font-size="13" fill="#e3e8ef">llama3-8b · folded document, every composition opened as a compound node</text>
<text x="24" y="41" font-size="10.5" fill="#78828f">ELK layered, top to bottom · 12 boxes · 12 edges · 314.9 × 1351 px · 22 ms</text>
<g transform="translate(24, 78)">
<rect x="12" y="229" width="290.9" height="751" rx="3" fill="#16222c" stroke="#4d9fd4" stroke-width="1"/>
<text x="24" y="252" font-family="'IBM Plex Mono', ui-monospace, monospace" font-size="14" fill="#4d9fd4">decoder</text>
<text x="24" y="273" font-family="'IBM Plex Sans', system-ui, sans-serif" font-size="10.5" fill="#d9a441">layer ∈ [0, 32) · ×32</text>
<text x="24" y="297" font-family="'IBM Plex Mono', ui-monospace, monospace" font-size="9.5" fill="#9aa3b0">6 sites per iteration · families decoder</text>
<path d="M131 387 L131 439" fill="none" stroke="#4c5765" stroke-width="1.2" marker-end="url(#arrow)"/>
<text x="60.6" y="416" font-family="'IBM Plex Mono', ui-monospace, monospace" font-size="9.5" fill="#58616d">attn.norm_in</text>
<path d="M131 497 L131 549" fill="none" stroke="#4c5765" stroke-width="1.2" marker-end="url(#arrow)"/>
<text x="83.4" y="526" font-family="'IBM Plex Mono', ui-monospace, monospace" font-size="9.5" fill="#58616d">attn_r.b</text>
<path d="M131 626 L131 678" fill="none" stroke="#4c5765" stroke-width="1.2" marker-end="url(#arrow)"/>
<text x="83.4" y="655" font-family="'IBM Plex Mono', ui-monospace, monospace" font-size="9.5" fill="#58616d">ffn_n.in</text>
<path d="M202.3 626 L202.3 636 L248 636 L248 888 L202.3 888 L202.3 898" fill="none" stroke="#4c5765" stroke-width="1.2" marker-end="url(#arrow)"/>
<text x="251" y="765" font-family="'IBM Plex Mono', ui-monospace, monospace" font-size="9.5" fill="#58616d">ffn_r.a</text>
<path d="M131 736 L131 788" fill="none" stroke="#4c5765" stroke-width="1.2" marker-end="url(#arrow)"/>
<text x="66.3" y="765" font-family="'IBM Plex Mono', ui-monospace, monospace" font-size="9.5" fill="#58616d">ffn.norm_in</text>
<path d="M131 846 L131 898" fill="none" stroke="#4c5765" stroke-width="1.2" marker-end="url(#arrow)"/>
<text x="89.1" y="875" font-family="'IBM Plex Mono', ui-monospace, monospace" font-size="9.5" fill="#58616d">ffn_r.b</text>
<path d="M131 140 L131 310" fill="none" stroke="#4c5765" stroke-width="1.2" marker-end="url(#arrow)"/>
<text x="54.9" y="185" font-family="'IBM Plex Mono', ui-monospace, monospace" font-size="9.5" fill="#58616d">decoder.entry</text>
<path d="M202.3 140 L202.3 198 L248 198 L248 539 L202.3 539 L202.3 549" fill="none" stroke="#4c5765" stroke-width="1.2" marker-end="url(#arrow)"/>
<text x="205.3" y="185" font-family="'IBM Plex Mono', ui-monospace, monospace" font-size="9.5" fill="#58616d">decoder.entry.a</text>
<path d="M166.7 956 L166.7 1069" fill="none" stroke="#4c5765" stroke-width="1.2" marker-end="url(#arrow)"/>
<text x="107.7" y="1030" font-family="'IBM Plex Mono', ui-monospace, monospace" font-size="9.5" fill="#58616d">final_n.in</text>
<path d="M166.7 1127 L166.7 1211" fill="none" stroke="#4c5765" stroke-width="1.2" marker-end="url(#arrow)"/>
<text x="107.7" y="1172" font-family="'IBM Plex Mono', ui-monospace, monospace" font-size="9.5" fill="#58616d">lm_head.in</text>
<path d="M166.7 46 L166.7 82" fill="none" stroke="#4c5765" stroke-width="1.2" marker-end="url(#arrow)"/>
<path d="M166.7 1269 L166.7 1305" fill="none" stroke="#4c5765" stroke-width="1.2" marker-end="url(#arrow)"/>
<rect x="105.1" y="12" width="123.1" height="34" rx="3" fill="none" stroke="#333b45" stroke-width="1" stroke-dasharray="4 3"/>
<text x="116.1" y="35" font-family="'IBM Plex Mono', ui-monospace, monospace" font-size="13.5" fill="#9aa3b0">◁ tokens</text>
<text x="116.1" y="55" font-family="'IBM Plex Sans', system-ui, sans-serif" font-size="10.5" fill="#78828f">token</text>
<rect x="92" y="1305" width="149.3" height="34" rx="3" fill="none" stroke="#333b45" stroke-width="1" stroke-dasharray="4 3"/>
<text x="103" y="1328" font-family="'IBM Plex Mono', ui-monospace, monospace" font-size="13.5" fill="#9aa3b0">logits ▷</text>
<text x="103" y="1348" font-family="'IBM Plex Sans', system-ui, sans-serif" font-size="10.5" fill="#78828f">generative</text>
<rect x="59.7" y="82" width="214" height="58" rx="3" fill="#1b2026" stroke="#333b45" stroke-width="1"/>
<text x="70.7" y="105" font-family="'IBM Plex Mono', ui-monospace, monospace" font-size="13.5" fill="#e3e8ef">embed</text>
<text x="70.7" y="125" font-family="'IBM Plex Sans', system-ui, sans-serif" font-size="10.5" fill="#78828f">embed@1.0.0</text>
<rect x="59.7" y="1069" width="214" height="58" rx="3" fill="#1b2026" stroke="#333b45" stroke-width="1"/>
<text x="70.7" y="1092" font-family="'IBM Plex Mono', ui-monospace, monospace" font-size="13.5" fill="#e3e8ef">final_n</text>
<text x="70.7" y="1112" font-family="'IBM Plex Sans', system-ui, sans-serif" font-size="10.5" fill="#78828f">norm.rms@1.0.0</text>
<rect x="59.7" y="1211" width="214" height="58" rx="3" fill="#1b2026" stroke="#333b45" stroke-width="1"/>
<text x="70.7" y="1234" font-family="'IBM Plex Mono', ui-monospace, monospace" font-size="13.5" fill="#e3e8ef">lm_head</text>
<text x="70.7" y="1254" font-family="'IBM Plex Sans', system-ui, sans-serif" font-size="10.5" fill="#78828f">lm_head@1.0.0</text>
<rect x="24" y="310" width="214" height="77" rx="3" fill="#1b2026" stroke="#2b323b" stroke-width="1"/>
<text x="35" y="333" font-family="'IBM Plex Mono', ui-monospace, monospace" font-size="13.5" fill="#e3e8ef">attn_n</text>
<text x="35" y="353" font-family="'IBM Plex Sans', system-ui, sans-serif" font-size="10.5" fill="#78828f">norm.rms@1.0.0</text>
<text x="35" y="372" font-family="'IBM Plex Mono', ui-monospace, monospace" font-size="9.5" fill="#d9a441">↺ carry from ffn_r[layer=subtrac…</text>
<rect x="24" y="439" width="214" height="58" rx="3" fill="#1b2026" stroke="#2b323b" stroke-width="1"/>
<text x="35" y="462" font-family="'IBM Plex Mono', ui-monospace, monospace" font-size="13.5" fill="#e3e8ef">attn</text>
<text x="35" y="482" font-family="'IBM Plex Sans', system-ui, sans-serif" font-size="10.5" fill="#78828f">attention.dense@1.0.0</text>
<rect x="59.7" y="549" width="214" height="77" rx="3" fill="#1b2026" stroke="#2b323b" stroke-width="1"/>
<text x="70.7" y="572" font-family="'IBM Plex Mono', ui-monospace, monospace" font-size="13.5" fill="#e3e8ef">attn_r</text>
<text x="70.7" y="592" font-family="'IBM Plex Sans', system-ui, sans-serif" font-size="10.5" fill="#78828f">residual.add@1.0.0</text>
<text x="70.7" y="611" font-family="'IBM Plex Mono', ui-monospace, monospace" font-size="9.5" fill="#d9a441">↺ carry from ffn_r[layer=subtrac…</text>
<rect x="24" y="678" width="214" height="58" rx="3" fill="#1b2026" stroke="#2b323b" stroke-width="1"/>
<text x="35" y="701" font-family="'IBM Plex Mono', ui-monospace, monospace" font-size="13.5" fill="#e3e8ef">ffn_n</text>
<text x="35" y="721" font-family="'IBM Plex Sans', system-ui, sans-serif" font-size="10.5" fill="#78828f">norm.rms@1.0.0</text>
<rect x="24" y="788" width="214" height="58" rx="3" fill="#1b2026" stroke="#2b323b" stroke-width="1"/>
<text x="35" y="811" font-family="'IBM Plex Mono', ui-monospace, monospace" font-size="13.5" fill="#e3e8ef">ffn</text>
<text x="35" y="831" font-family="'IBM Plex Sans', system-ui, sans-serif" font-size="10.5" fill="#78828f">ffn.gated@1.0.0</text>
<rect x="59.7" y="898" width="214" height="58" rx="3" fill="#1b2026" stroke="#2b323b" stroke-width="1"/>
<text x="70.7" y="921" font-family="'IBM Plex Mono', ui-monospace, monospace" font-size="13.5" fill="#e3e8ef">ffn_r</text>
<text x="70.7" y="941" font-family="'IBM Plex Sans', system-ui, sans-serif" font-size="10.5" fill="#78828f">residual.add@1.0.0</text>
</g>
</svg>
