<?xml version="1.0" encoding="UTF-8" standalone="no"?>
<!DOCTYPE svg PUBLIC "-//W3C//DTD SVG 1.1//EN"
 "http://www.w3.org/Graphics/SVG/1.1/DTD/svg11.dtd">
<!-- Generated by graphviz version 2.43.0 (0)
 -->
<!-- Title: qwen_split Pages: 1 -->
<svg width="973pt" height="546pt"
 viewBox="0.00 0.00 972.96 546.30" xmlns="http://www.w3.org/2000/svg" xmlns:xlink="http://www.w3.org/1999/xlink">
<g id="graph0" class="graph" transform="scale(1 1) rotate(0) translate(24.48 521.82)">
<title>qwen_split</title>
<polygon fill="#f6fafc" stroke="transparent" points="-24.48,24.48 -24.48,-521.82 948.48,-521.82 948.48,24.48 -24.48,24.48"/>
<g id="clust1" class="cluster">
<title>cluster_a</title>
<path fill="#eef5f8" stroke="#218ea5" d="M110,-297.67C110,-297.67 904,-297.67 904,-297.67 910,-297.67 916,-303.67 916,-309.67 916,-309.67 916,-409.67 916,-409.67 916,-415.67 910,-421.67 904,-421.67 904,-421.67 110,-421.67 110,-421.67 104,-421.67 98,-415.67 98,-409.67 98,-409.67 98,-309.67 98,-309.67 98,-303.67 104,-297.67 110,-297.67"/>
<text text-anchor="start" x="313" y="-408.27" font-family="Arial" font-weight="bold" font-size="13.00" fill="#123348">DEVICE A</text>
<text text-anchor="start" x="376" y="-408.27" font-family="Arial" font-size="13.00" fill="#123348"> — the block of decoder[layer&lt;=15]</text>
<text text-anchor="start" x="292.5" y="-396.87" font-family="Arial" font-size="11.00" fill="#123348">97 instances: embed and layers 0–15 · 12 gated&#45;delta, 4 attention</text>
<text text-anchor="start" x="106" y="-385.87" font-family="Arial" font-size="11.00" fill="#123348">D3: 4.51 GiB, the tied embedding table included · D4 per session: 4 KV caches at 4 KiB per position, 12 fixed states of 2 MiB, 12 rings of 48 KiB</text>
</g>
<g id="clust3" class="cluster">
<title>cluster_b</title>
<path fill="#eef5f8" stroke="#218ea5" d="M172,-79.67C172,-79.67 573,-79.67 573,-79.67 579,-79.67 585,-85.67 585,-91.67 585,-91.67 585,-169.67 585,-169.67 585,-175.67 579,-181.67 573,-181.67 573,-181.67 172,-181.67 172,-181.67 166,-181.67 160,-175.67 160,-169.67 160,-169.67 160,-91.67 160,-91.67 160,-85.67 166,-79.67 172,-79.67"/>
<text text-anchor="start" x="307.5" y="-168.27" font-family="Arial" font-weight="bold" font-size="13.00" fill="#123348">DEVICE B</text>
<text text-anchor="start" x="371.5" y="-168.27" font-family="Arial" font-size="13.00" fill="#123348"> — the rest</text>
<text text-anchor="start" x="199" y="-156.87" font-family="Arial" font-size="11.00" fill="#123348">98 instances: layers 16–31, final_n, lm_head · 12 gated&#45;delta, 4 attention</text>
<text text-anchor="start" x="168" y="-145.87" font-family="Arial" font-size="11.00" fill="#123348">D3: 4.51 GiB, the tied table again for lm_head · D4 per session: the same 4 + 12 + 12</text>
</g>
<!-- tokens -->
<g id="node1" class="node">
<title>tokens</title>
<ellipse fill="none" stroke="#8fb0c0" stroke-width="1.4" stroke-dasharray="5,2" cx="253" cy="-474" rx="46.84" ry="23.17"/>
<text text-anchor="middle" x="253" y="-470.3" font-family="Arial" font-size="14.00" fill="#123348">tokens</text>
</g>
<!-- a0 -->
<g id="node2" class="node">
<title>a0</title>
<path fill="#ffffff" stroke="#bfd3de" stroke-width="1.4" d="M387.5,-370.67C387.5,-370.67 118.5,-370.67 118.5,-370.67 112.5,-370.67 106.5,-364.67 106.5,-358.67 106.5,-358.67 106.5,-317.67 106.5,-317.67 106.5,-311.67 112.5,-305.67 118.5,-305.67 118.5,-305.67 387.5,-305.67 387.5,-305.67 393.5,-305.67 399.5,-311.67 399.5,-317.67 399.5,-317.67 399.5,-358.67 399.5,-358.67 399.5,-364.67 393.5,-370.67 387.5,-370.67"/>
<text text-anchor="start" x="228.5" y="-351.47" font-family="Arial" font-weight="bold" font-size="14.00" fill="#123348">shard 0</text>
<text text-anchor="start" x="131" y="-339.87" font-family="Arial" font-size="11.00" fill="#123348">gated delta: value heads 0–15, their recurrent state</text>
<text text-anchor="start" x="119.5" y="-328.87" font-family="Arial" font-size="11.00" fill="#123348">attention: query heads 0–7, KV heads 0–1, their k and v</text>
<text text-anchor="start" x="168.5" y="-317.87" font-family="Arial" font-size="11.00" fill="#123348">norms and adds: along the residual</text>
</g>
<!-- tokens&#45;&gt;a0 -->
<g id="edge5" class="edge">
<title>tokens&#45;&gt;a0</title>
<path fill="none" stroke="#3389a5" stroke-width="2" d="M253,-450.6C253,-444.35 253,-437.15 253,-429.48"/>
<polygon fill="#3389a5" stroke="#3389a5" stroke-width="2" points="255.63,-429.16 253,-421.66 250.38,-429.17 255.63,-429.16"/>
</g>
<!-- a1 -->
<g id="node3" class="node">
<title>a1</title>
<path fill="#ffffff" stroke="#bfd3de" stroke-width="1.4" d="M895.5,-370.67C895.5,-370.67 620.5,-370.67 620.5,-370.67 614.5,-370.67 608.5,-364.67 608.5,-358.67 608.5,-358.67 608.5,-317.67 608.5,-317.67 608.5,-311.67 614.5,-305.67 620.5,-305.67 620.5,-305.67 895.5,-305.67 895.5,-305.67 901.5,-305.67 907.5,-311.67 907.5,-317.67 907.5,-317.67 907.5,-358.67 907.5,-358.67 907.5,-364.67 901.5,-370.67 895.5,-370.67"/>
<text text-anchor="start" x="733.5" y="-351.47" font-family="Arial" font-weight="bold" font-size="14.00" fill="#123348">shard 1</text>
<text text-anchor="start" x="633" y="-339.87" font-family="Arial" font-size="11.00" fill="#123348">gated delta: value heads 16–31, their recurrent state</text>
<text text-anchor="start" x="621.5" y="-328.87" font-family="Arial" font-size="11.00" fill="#123348">attention: query heads 8–15, KV heads 2–3, their k and v</text>
<text text-anchor="start" x="673.5" y="-317.87" font-family="Arial" font-size="11.00" fill="#123348">norms and adds: along the residual</text>
</g>
<!-- a0&#45;&gt;a1 -->
<!-- a0&#45;&gt;a1 -->
<g id="edge2" class="edge">
<title>a0&#45;&gt;a1</title>
<path fill="none" stroke="#8fb0c0" stroke-width="2" stroke-dasharray="5,2" d="M407.48,-338.17C468.66,-338.17 538.93,-338.17 600.42,-338.17"/>
<polygon fill="#8fb0c0" stroke="#8fb0c0" stroke-width="2" points="407.25,-335.54 399.75,-338.17 407.25,-340.79 407.25,-335.54"/>
<polygon fill="#8fb0c0" stroke="#8fb0c0" stroke-width="2" points="600.76,-340.79 608.26,-338.17 600.76,-335.54 600.76,-340.79"/>
<text text-anchor="start" x="412" y="-344.37" font-family="Arial" font-size="11.00" fill="#557583">all_reduce after each output projection</text>
</g>
<!-- line -->
<g id="node4" class="node">
<title>line</title>
<path fill="#f6fafc" stroke="transparent" stroke-width="1.4" d="M494,-264.67C494,-264.67 12,-264.67 12,-264.67 6,-264.67 0,-258.67 0,-252.67 0,-252.67 0,-222.67 0,-222.67 0,-216.67 6,-210.67 12,-210.67 12,-210.67 494,-210.67 494,-210.67 500,-210.67 506,-216.67 506,-222.67 506,-222.67 506,-252.67 506,-252.67 506,-258.67 500,-264.67 494,-264.67"/>
<text text-anchor="start" x="162.5" y="-245.47" font-family="Arial" font-weight="bold" font-size="14.00" fill="#17639a">the line: decoder[layer&lt;=15]</text>
<text text-anchor="start" x="13" y="-233.87" font-family="Arial" font-size="11.00" fill="#557583">D2 payload: the residual stream, bf16[tokens, 2560] — 5 KiB per token, 2.5 MiB per 512&#45;token prefill</text>
<text text-anchor="start" x="115.5" y="-222.87" font-family="Arial" font-size="11.00" fill="#557583">D6 separated states: none — each device owns its states</text>
</g>
<!-- a0&#45;&gt;line -->
<g id="edge6" class="edge">
<title>a0&#45;&gt;line</title>
<path fill="none" stroke="#17639a" stroke-width="2.6" d="M253,-297.67C253,-286.58 253,-274.81 253,-264.72"/>
</g>
<!-- b0 -->
<g id="node5" class="node">
<title>b0</title>
<path fill="#ffffff" stroke="#bfd3de" stroke-width="1.4" d="M323,-130.67C323,-130.67 183,-130.67 183,-130.67 177,-130.67 171,-124.67 171,-118.67 171,-118.67 171,-99.67 171,-99.67 171,-93.67 177,-87.67 183,-87.67 183,-87.67 323,-87.67 323,-87.67 329,-87.67 335,-93.67 335,-99.67 335,-99.67 335,-118.67 335,-118.67 335,-124.67 329,-130.67 323,-130.67"/>
<text text-anchor="start" x="228.5" y="-111.47" font-family="Arial" font-weight="bold" font-size="14.00" fill="#123348">shard 0</text>
<text text-anchor="start" x="184" y="-99.87" font-family="Arial" font-size="11.00" fill="#123348">the same axes, layers 16–31</text>
</g>
<!-- line&#45;&gt;b0 -->
<g id="edge7" class="edge">
<title>line&#45;&gt;b0</title>
<path fill="none" stroke="#17639a" stroke-width="2.6" d="M253,-210.46C253,-204.03 253,-196.82 253,-189.29"/>
<polygon fill="#17639a" stroke="#17639a" stroke-width="2.6" points="255.63,-189.17 253,-181.67 250.38,-189.17 255.63,-189.17"/>
</g>
<!-- b1 -->
<g id="node6" class="node">
<title>b1</title>
<path fill="#ffffff" stroke="#bfd3de" stroke-width="1.4" d="M562,-130.67C562,-130.67 422,-130.67 422,-130.67 416,-130.67 410,-124.67 410,-118.67 410,-118.67 410,-99.67 410,-99.67 410,-93.67 416,-87.67 422,-87.67 422,-87.67 562,-87.67 562,-87.67 568,-87.67 574,-93.67 574,-99.67 574,-99.67 574,-118.67 574,-118.67 574,-124.67 568,-130.67 562,-130.67"/>
<text text-anchor="start" x="467.5" y="-111.47" font-family="Arial" font-weight="bold" font-size="14.00" fill="#123348">shard 1</text>
<text text-anchor="start" x="423" y="-99.87" font-family="Arial" font-size="11.00" fill="#123348">the same axes, layers 16–31</text>
</g>
<!-- b0&#45;&gt;b1 -->
<!-- b0&#45;&gt;b1 -->
<g id="edge4" class="edge">
<title>b0&#45;&gt;b1</title>
<path fill="none" stroke="#8fb0c0" stroke-width="2" stroke-dasharray="5,2" d="M342.92,-109.17C362.24,-109.17 382.65,-109.17 401.97,-109.17"/>
<polygon fill="#8fb0c0" stroke="#8fb0c0" stroke-width="2" points="342.75,-106.54 335.25,-109.17 342.75,-111.79 342.75,-106.54"/>
<polygon fill="#8fb0c0" stroke="#8fb0c0" stroke-width="2" points="402.1,-111.79 409.6,-109.17 402.1,-106.54 402.1,-111.79"/>
<text text-anchor="start" x="347.5" y="-115.37" font-family="Arial" font-size="11.00" fill="#557583">all_reduce</text>
</g>
<!-- logits -->
<g id="node7" class="node">
<title>logits</title>
<ellipse fill="none" stroke="#8fb0c0" stroke-width="1.4" stroke-dasharray="5,2" cx="253" cy="-23.33" rx="41.02" ry="23.17"/>
<text text-anchor="middle" x="253" y="-19.63" font-family="Arial" font-size="14.00" fill="#123348">logits</text>
</g>
<!-- b0&#45;&gt;logits -->
<g id="edge8" class="edge">
<title>b0&#45;&gt;logits</title>
<path fill="none" stroke="#3389a5" stroke-width="2" d="M253,-79.67C253,-71.59 253,-62.76 253,-54.57"/>
<polygon fill="#3389a5" stroke="#3389a5" stroke-width="2" points="255.63,-54.38 253,-46.88 250.38,-54.38 255.63,-54.38"/>
</g>
</g>
</svg>
